<svg width="87" height="32" viewBox="0 0 87 32" fill="none" xmlns="http://www.w3.org/2000/svg">
<g clip-path="url(#clip0_437_7808)">
<g clip-path="url(#clip1_437_7808)">
<path d="M32 12.6096V0H19.6205C25.8552 1.40982 30.6977 6.34937 32 12.6096Z" fill="#1F6BFD"/>
<path d="M32 19.404C30.6976 25.6785 25.8592 30.5958 19.6292 32.0008H32V19.404Z" fill="#1F6BFD"/>
<path d="M15.9785 5.58038C10.2437 5.58038 5.69025 10.2652 5.69025 16C5.69025 21.7356 10.2429 26.4196 15.9785 26.4196C21.7141 26.4196 26.3098 21.7364 26.3098 16C26.3098 10.2652 21.7133 5.58038 15.9785 5.58038Z" fill="#1F6BFD"/>
<path d="M12.3509 0H0V12.6088C1.30235 6.34937 6.1408 1.40982 12.3509 0Z" fill="#1F6BFD"/>
<path d="M0 19.4048V32.0008H12.3429C6.13682 30.595 1.30235 25.6785 0 19.4048Z" fill="#1F6BFD"/>
<path d="M36.9841 0H55.9654V5.83034H43.0772V13.0196H54.1257V18.8499H43.0772V26.1705H55.9646V32.0008H36.9841V0Z" fill="#1F6BFD"/>
<path d="M67.8585 5.83034H59.3534V0H82.455V5.83034H73.9515V32H67.8585V5.83034Z" fill="#1F6BFD"/>
<path d="M86.7076 0.889201C86.6327 0.713272 86.5285 0.558836 86.3947 0.425098C86.261 0.29136 86.1065 0.187873 85.9306 0.112247C85.7547 0.0374174 85.566 -0.000793457 85.3654 -0.000793457C85.164 -0.000793457 84.9753 0.0366213 84.8002 0.112247C84.6243 0.187077 84.4699 0.29136 84.3361 0.425098C84.2024 0.558836 84.0981 0.713272 84.0233 0.889201C83.9484 1.06513 83.9102 1.2538 83.9102 1.4544C83.9102 1.65581 83.9476 1.84447 84.0233 2.01961C84.0981 2.19553 84.2024 2.34997 84.3361 2.48371C84.4699 2.61745 84.6243 2.72173 84.8002 2.79656C84.9761 2.87139 85.1648 2.9096 85.3654 2.9096C85.5668 2.9096 85.7555 2.87219 85.9306 2.79656C86.1065 2.72173 86.261 2.61745 86.3947 2.48371C86.5285 2.34997 86.6319 2.19553 86.7076 2.01961C86.7824 1.84368 86.8206 1.65501 86.8206 1.4544C86.8206 1.2538 86.7824 1.06513 86.7076 0.889201ZM86.3891 2.05065C86.2825 2.22977 86.14 2.37226 85.9609 2.47893C85.7818 2.5856 85.5835 2.63894 85.3654 2.63894C85.1473 2.63894 84.9483 2.5856 84.77 2.47893C84.5909 2.37226 84.4484 2.22977 84.3417 2.05065C84.235 1.87154 84.1817 1.67332 84.1817 1.4552C84.1817 1.23708 84.235 1.03806 84.3417 0.859747C84.4484 0.680634 84.5909 0.538139 84.77 0.431467C84.9491 0.324795 85.1473 0.271459 85.3654 0.271459C85.5835 0.271459 85.7826 0.324795 85.9609 0.431467C86.14 0.538139 86.2825 0.680634 86.3891 0.859747C86.4958 1.03886 86.5492 1.23708 86.5492 1.4552C86.5492 1.67332 86.4958 1.87154 86.3891 2.05065Z" fill="#1F6BFD"/>
<path d="M85.7062 1.5746C85.7722 1.53958 85.8272 1.48863 85.8701 1.42255C85.9131 1.35648 85.9346 1.27767 85.9346 1.18692C85.9346 1.09617 85.9139 1.01895 85.8717 0.95686C85.8295 0.894767 85.777 0.847004 85.7133 0.815161C85.6496 0.783319 85.5836 0.766602 85.5159 0.766602H84.8719V2.10955H85.1067V1.62794H85.4753L85.7269 2.10955H85.9888L85.703 1.57619C85.7046 1.57619 85.7054 1.5754 85.7062 1.5746ZM85.1075 0.951287H85.4458C85.504 0.951287 85.5573 0.969597 85.6066 1.00622C85.656 1.04283 85.6807 1.10333 85.6807 1.18772C85.6807 1.27051 85.656 1.3334 85.6066 1.37798C85.5573 1.42255 85.5024 1.44405 85.4403 1.44405H85.1075V0.951287Z" fill="#1F6BFD"/>
</g>
</g>
<defs>
<clipPath id="clip0_437_7808">
<rect width="87" height="32" fill="white"/>
</clipPath>
<clipPath id="clip1_437_7808">
<rect width="86.8206" height="32" fill="white"/>
</clipPath>
</defs>
</svg>
